<svg id="Layer_1" data-name="Layer 1" xmlns="http://www.w3.org/2000/svg" viewBox="0 0 1080 1080"><defs><style>.cls-1,.cls-3{fill:none;}.cls-1{stroke:#fff;stroke-miterlimit:10;stroke-width:24px;}.cls-2{fill:#fff;}</style></defs><title>ACL_Art</title><rect class="cls-1" x="65.61" y="63.21" width="953.57" height="953.57" rx="37.24" ry="37.24"/><path class="cls-2" d="M262.88,157.57h61.2l92.4,270.8,23.2,4v24h-118v-24l30-4-15.6-52H232.48l-15.6,52.4,32.4,3.6v24h-102l-.4-24,24-4Zm27.6,67.6-7.2-31.2-7.6,31.6-35.6,122.8h88Z"/><path class="cls-2" d="M72.69,539.42v469.73H542.42V539.42ZM409.88,928.71H188.68v-24l31.6-4V661.51l-30.8-5.2v-24.8h128v24.8l-38.4,5.2v238.8l85.6-3.6,25.2-74.8,32.4,4.4Z"/><path class="cls-2" d="M544.8,70.27V540h469.72V70.27Zm348.81,375.3a102.14,102.14,0,0,0-16.6,3q-8.21,2.21-10.2,2.6-16,4.41-29.8,7t-33.8,2.6q-68,0-104-40.6t-36-111q0-46.4,19-81t52.2-53.4q33.2-18.79,75.2-18.8a256.83,256.83,0,0,1,34,2.2q16.39,2.21,38.8,5.8,16.8,2.81,18.4,2.8l-4.4,82.4h-36.8L847.21,192q-4.41-4.4-15.2-7.2t-27.6-2.8q-34,0-54.6,31.4t-20.6,91q0,57.6,19.6,94t57.2,36.4q18,0,27.8-3.4a45.65,45.65,0,0,0,16.6-9.8l17.6-41.2,33.6,3.2Z"/><path class="cls-3" d="M766.25,602.43c-13,10-19.34,25.62-19.41,25.8a8.27,8.27,0,0,1-7.66,5.22h-22a8.26,8.26,0,0,1-7.15-4.15c-5.48-9.58-12.93-19.1-17.83-23.22-.32,7.57-.28,13.69,4.16,19.74a8.28,8.28,0,0,1,1.58,5.44c-1.28,18.69-19.26,38.43-23.62,43C647.49,719,610.09,787.48,610.09,801c0,16,3,27.18,8.77,32.39s14.31,4.39,21.17,3.71c1-.1,1.91-.19,2.77-.25,1.17-1.26,1.23-2.76,1-6.25s-.52-8.23,3.09-12.08c2.48-2.63,6.25-3.76,10.47-3.8,6.11,0,9.28,2.81,10.83,5.21,3.84,5.92.72,12.41-2.29,18.68-1,2-3.24,6.72-3.76,9.41,5.2-.38,8.14-4,14.51-12.55,6.23-8.38,14.76-19.86,30.48-30.34,30-20,61-46,75.69-67.34-.45-7.34-1.23-15.17-2.38-23.55a8.24,8.24,0,0,1,7-9.29,8.33,8.33,0,0,1,6.6,2,8.23,8.23,0,0,1,13.68,5c1.23,9.45-2.13,19.66-8.23,29.93,3,72.88-26.07,101-52.07,126.09-19.12,18.47-35.84,34.63-38.22,67.51H945.32c4.17-251.49-82.69-294-168.48-302.14h0l-.6-.09-.23,0a4.77,4.77,0,0,1-.51-.13l-.29-.07-.31-.11-.46-.17h0a8.27,8.27,0,0,1-5-6.74v0a6.57,6.57,0,0,1,0-.78v0C769.38,616.65,768,607.1,766.25,602.43ZM634.81,809.22a13.74,13.74,0,1,1,13.73-13.73A13.75,13.75,0,0,1,634.81,809.22Zm72.32-116.73a46.42,46.42,0,0,1-8.89,11.33c-4,3.52-7.44,4.6-10.19,4.6a10.29,10.29,0,0,1-5.18-1.39c-7.33-4.23-7.15-15.07.47-28.27s16.93-18.79,24.25-14.53a10.64,10.64,0,0,1,4.92,6.59C714.55,678.42,709.43,688.51,707.13,692.49Z"/><path class="cls-2" d="M775.19,633.08l.29.07Z"/><path class="cls-2" d="M774.41,632.8a8.26,8.26,0,0,1-5-6.74A8.27,8.27,0,0,0,774.41,632.8Z"/><path class="cls-2" d="M785.64,617.8c.17,2.78.23,5.33.23,7.41a6.84,6.84,0,0,1-.06.91c110.27,13.85,173,92.49,167.59,317.67H700.73c0-89.5,90-75.48,90.78-190.19-2.65,3.41-5.53,6.8-8.57,10.13-3,50-25.24,71.51-46.92,92.46-21.4,20.67-43.53,42.06-43.53,87.6a8.24,8.24,0,0,0,8.24,8.24H953.4a8.25,8.25,0,0,0,8.24-8C966.69,731.47,914,633.35,785.64,617.8Z"/><path class="cls-2" d="M769.43,626a6.57,6.57,0,0,1,0-.78A6.57,6.57,0,0,0,769.43,626Z"/><path class="cls-2" d="M776,633.28l.23,0Z"/><path class="cls-2" d="M774.42,632.8l.46.17Z"/><path class="cls-2" d="M777.63,633.45h0c-.28,0-.54,0-.81,0h0c85.79,8.17,172.65,50.65,168.48,302.14H709.25c2.38-32.88,19.1-49,38.22-67.51,26-25.12,55.07-53.21,52.07-126.09a115.23,115.23,0,0,1-8,11.65c-.76,114.71-90.78,100.69-90.78,190.19H953.4C958.76,718.61,896.08,640,785.81,626.12A8.24,8.24,0,0,1,777.63,633.45Z"/><path class="cls-2" d="M776.22,633.32l.6.09Z"/><path class="cls-2" d="M774.88,633l.31.11Z"/><path class="cls-2" d="M769.43,626v0Z"/><path class="cls-2" d="M783.27,750.66c-20.25,24.76-54,49.63-71.56,61.3-33,22-31,47.68-54.93,43.95-11.44-10.33,15.49-33.4,0-33-11,0,2.09,13.51-11,22-11,0-44,11-43.94-43.94,0-22,65.91-131.83,65.91-131.83s20.76-20.87,22-38.45c-8-10.92-5.49-22-5.49-33,11-11,33,27.47,33,27.47h22s8.57-21.89,27.46-33c7.41,0,9.82,15,10.6,24.72a9.14,9.14,0,0,1,1.17,0c2.44.24,4.84.51,7.23.8-.84-13.84-4.56-33.79-19-33.79a8.29,8.29,0,0,0-4.17,1.13c-15.32,9-24.51,23.93-28.55,31.83h-12c-6-9.76-18.68-27.65-31-29.3a14.5,14.5,0,0,0-12.46,4.25,8.24,8.24,0,0,0-2.41,5.82c0,2-.09,4-.18,6-.37,8.42-.83,18.71,5.34,28.93-2.33,11.51-14.44,25.81-19.25,30.67a8.09,8.09,0,0,0-1.22,1.56c-11.2,18.67-67.08,113-67.08,136.06,0,21.35,4.62,35.94,14.18,44.61,11.19,10.13,25.37,8.74,33.85,7.9,1.69-.17,3.12-.29,4.34-.32a16.36,16.36,0,0,0,5.27,8.87,8.3,8.3,0,0,0,4.25,2,38,38,0,0,0,5.82.47c14.25,0,21.23-9.38,28.56-19.24,6.12-8.23,13.05-17.57,26.39-26.46s44.39-30.68,66.66-55.09Q783.32,757.51,783.27,750.66Z"/><path class="cls-2" d="M807.77,712a8.23,8.23,0,0,0-13.68-5,8.15,8.15,0,0,1,2.69,5c.62,4.51,1.14,8.87,1.56,13.11a28.64,28.64,0,0,0,1.26-12,28.64,28.64,0,0,1-1.26,12c.58,5.88,1,11.49,1.2,16.87C805.64,731.68,809,721.47,807.77,712Z"/><path class="cls-2" d="M707.14,805.11c-15.72,10.48-24.25,22-30.48,30.34-6.37,8.58-9.31,12.17-14.51,12.55.52-2.69,2.78-7.38,3.76-9.41,3-6.27,6.13-12.76,2.29-18.68-1.55-2.4-4.72-5.21-10.83-5.21-4.22,0-8,1.17-10.47,3.8-3.61,3.85-3.31,8.61-3.09,12.08s.16,5-1,6.25c-.86.06-1.79.15-2.77.25-6.86.68-15.39,1.53-21.17-3.71S610.08,817,610.09,801c0-13.5,37.4-81.94,64.25-126.77,4.36-4.52,22.34-24.26,23.62-43a8.28,8.28,0,0,0-1.58-5.44c-4.44-6.05-4.48-12.17-4.16-19.74,4.9,4.12,12.35,13.64,17.83,23.22a8.26,8.26,0,0,0,7.15,4.15h22a8.27,8.27,0,0,0,7.66-5.22c.07-.18,6.4-15.81,19.41-25.8,1.74,4.67,3.13,14.22,3.14,22.78v0q0-.4,0-.81a8.21,8.21,0,0,1,7.82-7.45c-.78-9.76-3.19-24.72-10.6-24.72-18.89,11.07-27.46,33-27.46,33h-22s-22-38.45-33-27.47c0,11-2.53,22,5.49,33-1.21,17.58-22,38.45-22,38.45S601.86,779,601.86,801c0,54.93,32.95,43.94,43.94,43.94,13.07-8.46,0-22,11-22,15.49-.44-11.44,22.63,0,33,24,3.73,22-22,54.93-43.95,17.54-11.67,51.31-36.54,71.56-61.3q0-6.18-.44-12.89C768.14,759.11,737.16,785.14,707.14,805.11Z"/><path class="cls-2" d="M774.41,632.8h0Z"/><path class="cls-2" d="M775.48,633.15a4.77,4.77,0,0,0,.51.13A4.77,4.77,0,0,1,775.48,633.15Z"/><path class="cls-2" d="M798.34,725.08a60.77,60.77,0,0,1-7.15,14.77q.38,7.17.32,13.75a115.23,115.23,0,0,0,8-11.65C799.31,736.57,798.92,731,798.34,725.08Z"/><path class="cls-2" d="M782.83,737.77q.4,6.72.44,12.89a117.19,117.19,0,0,0,7.92-10.81c-.25-4.93-.64-10.07-1.2-15.43A59.48,59.48,0,0,1,782.83,737.77Z"/><path class="cls-2" d="M796.78,712a8.15,8.15,0,0,0-2.69-5,8.2,8.2,0,0,0-2.66,7.19A22.53,22.53,0,0,1,790,724.42c.56,5.36,1,10.5,1.2,15.43a60.77,60.77,0,0,0,7.15-14.77C797.92,720.84,797.4,716.48,796.78,712Z"/><path class="cls-2" d="M777.24,617a8.21,8.21,0,0,0-7.82,7.45q0,.41,0,.81a6.57,6.57,0,0,0,0,.78v0a8.26,8.26,0,0,0,5,6.74h0l.46.17.31.11.29.07a4.77,4.77,0,0,0,.51.13l.23,0,.6.09c.27,0,.53,0,.81,0h0a8.24,8.24,0,0,0,8.18-7.33c-2.7-.34-5.42-.65-8.18-.91C777.63,625.21,777.62,621.69,777.24,617Z"/><path class="cls-2" d="M777.24,617c.38,4.72.39,8.24.39,8.24,2.76.26,5.48.57,8.18.91a6.84,6.84,0,0,0,.06-.91c0-2.08-.06-4.63-.23-7.41-2.39-.29-4.79-.56-7.23-.8A9.14,9.14,0,0,0,777.24,617Z"/><path class="cls-2" d="M791.19,739.85a117.19,117.19,0,0,1-7.92,10.81q0,6.86-.33,13.07c3-3.33,5.92-6.72,8.57-10.13Q791.56,747,791.19,739.85Z"/><path class="cls-2" d="M634.81,792.74a2.75,2.75,0,0,0-2.74,2.75c0,3,5.49,3,5.49,0A2.75,2.75,0,0,0,634.81,792.74Z"/><path class="cls-2" d="M634.81,781.75a13.74,13.74,0,1,0,13.73,13.74A13.75,13.75,0,0,0,634.81,781.75Zm0,19.23a5.5,5.5,0,1,1,5.5-5.5A5.49,5.49,0,0,1,634.81,801Z"/><path class="cls-2" d="M634.81,790a5.5,5.5,0,1,0,5.5,5.49A5.49,5.49,0,0,0,634.81,790Zm-2.74,5.5a2.75,2.75,0,1,1,5.49,0C637.56,798.51,632.07,798.51,632.07,795.49Z"/><path class="cls-2" d="M707.59,664.23c-7.32-4.26-16.62,1.33-24.25,14.53s-7.8,24-.47,28.27a10.29,10.29,0,0,0,5.18,1.39c2.75,0,6.22-1.08,10.19-4.6a46.42,46.42,0,0,0,8.89-11.33c2.3-4,7.42-14.07,5.38-21.67A10.64,10.64,0,0,0,707.59,664.23ZM700,688.37c-4.55,7.89-10.37,13-13,11.53s-1.07-9.14,3.48-17,10.37-13,13-11.52S704.54,680.49,700,688.37Z"/><path class="cls-2" d="M703.47,671.36c-2.62-1.52-8.44,3.64-13,11.52s-6.11,15.5-3.48,17,8.44-3.64,13-11.53S706.1,672.87,703.47,671.36Z"/></svg>