<?xml version="1.0" standalone="no"?>
<!DOCTYPE svg PUBLIC "-//W3C//DTD SVG 20010904//EN"
 "http://www.w3.org/TR/2001/REC-SVG-20010904/DTD/svg10.dtd">
<svg version="1.0" xmlns="http://www.w3.org/2000/svg"
 width="700.000000pt" height="700.000000pt" viewBox="0 0 700.000000 700.000000"
 preserveAspectRatio="xMidYMid meet">
<metadata>
Created by potrace 1.11, written by Peter Selinger 2001-2013
</metadata>
<g transform="translate(0.000000,700.000000) scale(0.100000,-0.100000)"
fill="#000000" stroke="none">
<path d="M583 6660 c-94 -19 -174 -84 -221 -179 l-27 -56 0 -2925 0 -2925 26
-55 c34 -71 90 -126 159 -159 l55 -26 2925 0 2925 0 47 22 c26 12 54 28 63 35
48 40 79 79 103 128 l27 55 0 2925 0 2925 -26 55 c-33 69 -88 125 -159 159
l-55 26 -2900 1 c-1595 1 -2919 -2 -2942 -6z"/>
</g>
</svg>
