<svg id="Layer_1" data-name="Layer 1" xmlns="http://www.w3.org/2000/svg" viewBox="0 0 1080 1080"><defs><style>.cls-1,.cls-3{fill:#fff;}.cls-1{stroke:#231f20;stroke-miterlimit:10;stroke-width:24px;}.cls-2{fill:#231f20;}.cls-4{fill:#010101;}</style></defs><title>ACL_Art</title><rect class="cls-1" x="63.21" y="63.21" width="953.57" height="953.57" rx="37.24" ry="37.24"/><rect class="cls-2" x="542.4" y="70.27" width="469.73" height="469.73"/><rect class="cls-2" x="70.29" y="539.42" width="469.73" height="469.73"/><path class="cls-2" d="M260.48,157.57h61.2l92.4,270.8,23.2,4v24h-118v-24l30-4-15.6-52H230.08l-15.6,52.4,32.4,3.6v24h-102l-.4-24,24-4Zm27.6,67.6-7.2-31.2-7.6,31.6-35.6,122.8h88Z"/><path class="cls-3" d="M217.89,661.51l-30.8-5.2v-24.8h128v24.8l-38.4,5.2v238.8l85.6-3.6,25.2-74.79,32.4,4.39-12.4,102.4H186.29v-24l31.6-4Z"/><path class="cls-3" d="M696.81,420.17q-36-40.59-36-111,0-46.4,19-81t52.2-53.4Q765.21,156,807.21,156a256.83,256.83,0,0,1,34,2.2q16.39,2.21,38.8,5.8,16.8,2.81,18.4,2.8l-4.4,82.4h-36.8L844.81,192q-4.41-4.4-15.2-7.2T802,182q-34,0-54.6,31.4t-20.6,91q0,57.6,19.6,94t57.2,36.4q18,0,27.8-3.4a45.65,45.65,0,0,0,16.6-9.8l17.6-41.2,33.6,3.2-8,62a102.14,102.14,0,0,0-16.6,3q-8.21,2.21-10.2,2.6-16,4.41-29.8,7t-33.8,2.6Q732.8,460.77,696.81,420.17Z"/><path class="cls-3" d="M775.23,625.21c115.35,11,181.26,87.88,175.77,318.58H698.33c0-98.87,109.86-71.4,87.88-230.7"/><path class="cls-4" d="M951,952H698.33a8.24,8.24,0,0,1-8.24-8.24c0-45.54,22.13-66.93,43.53-87.6,27.77-26.83,56.49-54.57,44.43-142A8.24,8.24,0,0,1,794.38,712c13.19,95.69-20,127.76-49.3,156.07-19.13,18.47-35.85,34.63-38.22,67.51H942.93c4.16-251.49-82.7-294-168.49-302.14A8.24,8.24,0,0,1,776,617c133.58,12.73,188.38,110.52,183.23,327A8.25,8.25,0,0,1,951,952Z"/><path class="cls-3" d="M797.2,713.09c4.17,32-61,81-87.89,98.87-32.95,22-31,47.68-54.92,43.95-11.45-10.33,15.49-33.4,0-33-11,0,2.08,13.51-11,22-11,0-44,11-43.94-43.94,0-22,65.91-131.83,65.91-131.83s20.76-20.87,22-38.45c-8-10.92-5.49-22-5.49-33,11-11,33,27.47,33,27.47h22s8.57-21.89,27.46-33c11,0,11,33,11,33"/><path class="cls-4" d="M658.93,864.52a38,38,0,0,1-5.82-.47,8.34,8.34,0,0,1-4.25-2,16.42,16.42,0,0,1-5.27-8.87c-1.22,0-2.65.15-4.34.32-8.48.84-22.66,2.23-33.85-7.9-9.55-8.67-14.19-23.26-14.18-44.61,0-23.07,55.88-117.39,67.09-136.06a7.67,7.67,0,0,1,1.21-1.56c4.81-4.86,16.92-19.16,19.25-30.67-6.17-10.22-5.71-20.51-5.34-28.93.09-2,.18-4,.18-6a8.24,8.24,0,0,1,2.41-5.82,14.51,14.51,0,0,1,12.46-4.25c12.34,1.65,25,19.54,31,29.3h12c4-7.9,13.22-22.85,28.54-31.83a8.29,8.29,0,0,1,4.17-1.13c17.35,0,19.23,28.81,19.23,41.2a8.25,8.25,0,0,1-8.24,8.24h0a8.24,8.24,0,0,1-8.24-8.24c0-8.56-1.4-18.11-3.13-22.78-13,10-19.35,25.62-19.42,25.8a8.27,8.27,0,0,1-7.66,5.22h-22a8.23,8.23,0,0,1-7.15-4.15c-5.49-9.58-12.94-19.1-17.84-23.22-.32,7.57-.28,13.69,4.16,19.74a8.22,8.22,0,0,1,1.58,5.44c-1.28,18.69-19.26,38.43-23.62,43C645.09,719,607.69,787.48,607.69,801c0,16,3,27.18,8.78,32.39s14.3,4.39,21.16,3.71c1-.1,1.91-.19,2.78-.25,1.16-1.26,1.22-2.76,1-6.25s-.52-8.23,3.09-12.08c2.48-2.63,6.25-3.76,10.47-3.8,6.11,0,9.28,2.81,10.83,5.21,3.85,5.92.72,12.41-2.29,18.68-1,2-3.24,6.72-3.76,9.41,5.2-.38,8.14-4,14.51-12.55,6.23-8.38,14.76-19.86,30.48-30.34,42.62-28.35,87.17-68.9,84.29-91A8.24,8.24,0,1,1,805.37,712c5.12,39.22-68.74,91.67-91.49,106.8-13.34,8.89-20.27,18.23-26.39,26.46C680.16,855.14,673.19,864.52,658.93,864.52Z"/><path class="cls-4" d="M637.91,795.48a5.5,5.5,0,1,1-5.5-5.49A5.5,5.5,0,0,1,637.91,795.48Z"/><path class="cls-4" d="M632.41,809.22a13.74,13.74,0,1,1,13.73-13.73A13.75,13.75,0,0,1,632.41,809.22Zm0-16.48a2.75,2.75,0,0,0-2.74,2.75c0,3,5.49,3,5.49,0A2.75,2.75,0,0,0,632.41,792.74Z"/><path class="cls-4" d="M697.59,688.37c-4.55,7.89-10.37,13-13,11.53s-1.07-9.14,3.48-17,10.37-13,13-11.52S702.14,680.49,697.59,688.37Z"/><path class="cls-4" d="M685.65,708.42a10.25,10.25,0,0,1-5.17-1.39c-7.34-4.23-7.16-15.07.46-28.27s16.93-18.79,24.25-14.53a10.61,10.61,0,0,1,4.92,6.59c2,7.6-3.08,17.69-5.38,21.67a46.42,46.42,0,0,1-8.89,11.33C691.87,707.34,688.4,708.42,685.65,708.42Z"/></svg>