<svg id="Layer_1" data-name="Layer 1" xmlns="http://www.w3.org/2000/svg" viewBox="0 0 1080 1080"><defs><style>.cls-1,.cls-3{fill:none;}.cls-1{stroke:#231f20;stroke-miterlimit:10;stroke-width:24px;}.cls-2{fill:#231f20;}.cls-4{fill:#010101;}</style></defs><title>ACL_Art</title><rect class="cls-1" x="63.21" y="63.21" width="953.57" height="953.57" rx="37.24" ry="37.24"/><path class="cls-2" d="M260.48,157.57h61.2l92.4,270.8,23.2,4v24h-118v-24l30-4-15.6-52H230.08l-15.6,52.4,32.4,3.6v24h-102l-.4-24,24-4Zm27.6,67.6-7.2-31.2-7.6,31.6-35.6,122.8h88Z"/><path class="cls-2" d="M70.29,539.42v469.73H540V539.42Zm337.2,389.29H186.29v-24l31.6-4V661.51l-30.8-5.2v-24.8h128v24.8l-38.4,5.2v238.8l85.6-3.6,25.2-74.8,32.4,4.4Z"/><path class="cls-2" d="M542.4,70.27V540h469.73V70.27Zm348.81,375.3a102.14,102.14,0,0,0-16.6,3q-8.21,2.21-10.2,2.6-16,4.41-29.8,7t-33.8,2.6q-68,0-104-40.6t-36-111q0-46.4,19-81t52.2-53.4Q765.21,156,807.21,156a256.83,256.83,0,0,1,34,2.2q16.39,2.21,38.8,5.8,16.8,2.81,18.4,2.8l-4.4,82.4h-36.8L844.81,192q-4.41-4.4-15.2-7.2T802,182q-34,0-54.6,31.4t-20.6,91q0,57.6,19.6,94t57.2,36.4q18,0,27.8-3.4a45.65,45.65,0,0,0,16.6-9.8l17.6-41.2,33.6,3.2Z"/><path class="cls-3" d="M763.86,602.43c-13,10-19.35,25.62-19.42,25.8a8.27,8.27,0,0,1-7.66,5.22h-22a8.23,8.23,0,0,1-7.15-4.15c-5.49-9.58-12.94-19.1-17.84-23.22-.32,7.57-.28,13.69,4.16,19.74a8.22,8.22,0,0,1,1.58,5.44c-1.28,18.69-19.26,38.43-23.62,43C645.09,719,607.69,787.48,607.69,801c0,16,3,27.18,8.78,32.39s14.3,4.39,21.16,3.71c1-.1,1.91-.19,2.78-.25,1.16-1.26,1.22-2.76,1-6.25s-.52-8.23,3.09-12.08c2.48-2.63,6.25-3.76,10.47-3.8,6.11,0,9.28,2.81,10.83,5.21,3.85,5.92.72,12.41-2.29,18.68-1,2-3.24,6.72-3.76,9.41,5.2-.38,8.14-4,14.51-12.55,6.23-8.38,14.76-19.86,30.48-30.34,30-20,61-46,75.69-67.34-.45-7.34-1.22-15.17-2.38-23.55a8.24,8.24,0,0,1,7-9.29,8.33,8.33,0,0,1,6.6,2,8.23,8.23,0,0,1,13.68,5c1.23,9.45-2.12,19.66-8.23,29.93,3,72.88-26.07,101-52.06,126.09-19.13,18.47-35.85,34.63-38.22,67.51H942.93c4.16-251.49-82.7-294-168.49-302.14h0l-.6-.09-.22,0a4.39,4.39,0,0,1-.52-.13l-.29-.07-.31-.11-.46-.17h0a8.26,8.26,0,0,1-5-6.74v0a6.57,6.57,0,0,1,0-.78v0C767,616.65,765.59,607.1,763.86,602.43Z"/><path class="cls-4" d="M767,626a6.57,6.57,0,0,1,0-.78A6.57,6.57,0,0,0,767,626Z"/><path class="cls-4" d="M772,632.8a8.25,8.25,0,0,1-5-6.74A8.26,8.26,0,0,0,772,632.8Z"/><path class="cls-4" d="M772,632.8l.46.17Z"/><path class="cls-4" d="M772.79,633.08l.29.07Z"/><path class="cls-4" d="M773.6,633.28l.22,0Z"/><path class="cls-4" d="M775.23,633.45h0c-.27,0-.54,0-.81,0h0c85.79,8.17,172.65,50.65,168.49,302.14H706.86c2.37-32.88,19.09-49,38.22-67.51,26-25.12,55.06-53.21,52.06-126.09a115.23,115.23,0,0,1-8,11.65c-.76,114.71-90.78,100.69-90.78,190.19H951C956.36,718.61,893.68,640,783.41,626.12A8.24,8.24,0,0,1,775.23,633.45Z"/><path class="cls-4" d="M783.24,617.8c.17,2.78.23,5.33.23,7.41a6.84,6.84,0,0,1-.06.91C893.68,640,956.36,718.61,951,943.79H698.33c0-89.5,90-75.48,90.78-190.19-2.65,3.41-5.53,6.8-8.57,10.13-3,50-25.24,71.51-46.92,92.46-21.4,20.67-43.53,42.06-43.53,87.6a8.24,8.24,0,0,0,8.24,8.24H951a8.25,8.25,0,0,0,8.24-8C964.29,731.47,911.57,633.35,783.24,617.8Z"/><path class="cls-4" d="M780.87,750.66c-20.25,24.76-54,49.63-71.56,61.3-32.95,22-31,47.68-54.92,43.95-11.45-10.33,15.49-33.4,0-33-11,0,2.08,13.51-11,22-11,0-44,11-43.94-43.94,0-22,65.91-131.83,65.91-131.83s20.76-20.87,22-38.45c-8-10.92-5.49-22-5.49-33,11-11,33,27.47,33,27.47h22s8.57-21.89,27.46-33c7.41,0,9.82,15,10.61,24.72a9,9,0,0,1,1.16,0c2.44.24,4.84.51,7.23.8-.84-13.84-4.56-33.79-19-33.79a8.29,8.29,0,0,0-4.17,1.13c-15.32,9-24.51,23.93-28.54,31.83h-12c-6-9.76-18.67-27.65-31-29.3A14.51,14.51,0,0,0,676,591.92a8.24,8.24,0,0,0-2.41,5.82c0,2-.09,4-.18,6-.37,8.42-.83,18.71,5.34,28.93-2.33,11.51-14.44,25.81-19.25,30.67a7.67,7.67,0,0,0-1.21,1.56c-11.21,18.67-67.09,113-67.09,136.06,0,21.35,4.63,35.94,14.18,44.61,11.19,10.13,25.37,8.74,33.85,7.9,1.69-.17,3.12-.29,4.34-.32a16.42,16.42,0,0,0,5.27,8.87,8.34,8.34,0,0,0,4.25,2,38,38,0,0,0,5.82.47c14.26,0,21.23-9.38,28.56-19.24,6.12-8.23,13-17.57,26.39-26.46s44.39-30.68,66.66-55.09Q780.92,757.51,780.87,750.66Z"/><path class="cls-4" d="M773.82,633.32l.6.09Z"/><path class="cls-4" d="M773.08,633.15a4.39,4.39,0,0,0,.52.13A4.39,4.39,0,0,1,773.08,633.15Z"/><path class="cls-4" d="M772.48,633l.31.11Z"/><path class="cls-4" d="M772,632.8Z"/><path class="cls-4" d="M767,626v0Z"/><path class="cls-4" d="M805.37,712a8.23,8.23,0,0,0-13.68-5,8.15,8.15,0,0,1,2.69,5c.62,4.51,1.14,8.87,1.56,13.11a28.64,28.64,0,0,0,1.26-12,28.64,28.64,0,0,1-1.26,12c.58,5.88,1,11.49,1.2,16.87C803.25,731.68,806.6,721.47,805.37,712Z"/><path class="cls-4" d="M704.74,805.11c-15.72,10.48-24.25,22-30.48,30.34C667.89,844,665,847.62,659.75,848c.52-2.69,2.78-7.38,3.76-9.41,3-6.27,6.14-12.76,2.29-18.68-1.55-2.4-4.72-5.21-10.83-5.21-4.22,0-8,1.17-10.47,3.8-3.61,3.85-3.31,8.61-3.09,12.08s.16,5-1,6.25c-.87.06-1.8.15-2.78.25-6.86.68-15.39,1.53-21.16-3.71S607.68,817,607.69,801c0-13.5,37.4-81.94,64.25-126.77,4.36-4.52,22.34-24.26,23.62-43a8.22,8.22,0,0,0-1.58-5.44c-4.44-6.05-4.48-12.17-4.16-19.74,4.9,4.12,12.35,13.64,17.84,23.22a8.23,8.23,0,0,0,7.15,4.15h22a8.27,8.27,0,0,0,7.66-5.22c.07-.18,6.4-15.81,19.42-25.8,1.73,4.67,3.12,14.22,3.13,22.78v0a7.44,7.44,0,0,1,0-.81,8.2,8.2,0,0,1,7.82-7.45c-.79-9.76-3.2-24.72-10.61-24.72-18.89,11.07-27.46,33-27.46,33h-22s-22-38.45-33-27.47c0,11-2.53,22,5.49,33-1.21,17.58-22,38.45-22,38.45S599.46,779,599.46,801c0,54.93,32.95,43.94,43.94,43.94,13.07-8.46,0-22,11-22,15.49-.44-11.45,22.63,0,33,23.94,3.73,22-22,54.92-43.95,17.54-11.67,51.31-36.54,71.56-61.3q0-6.18-.44-12.89C765.74,759.11,734.77,785.14,704.74,805.11Z"/><path class="cls-4" d="M780.43,737.77q.41,6.72.44,12.89a117.35,117.35,0,0,0,7.93-10.81q-.37-7.4-1.21-15.43A59.48,59.48,0,0,1,780.43,737.77Z"/><path class="cls-4" d="M794.38,712a8.15,8.15,0,0,0-2.69-5,8.2,8.2,0,0,0-2.66,7.19,22.4,22.4,0,0,1-1.44,10.26q.84,8,1.21,15.43a61.08,61.08,0,0,0,7.14-14.77C795.52,720.84,795,716.48,794.38,712Z"/><path class="cls-4" d="M774.85,617a8.2,8.2,0,0,0-7.82,7.45,7.44,7.44,0,0,0,0,.81,6.57,6.57,0,0,0,0,.78v0a8.25,8.25,0,0,0,5,6.74h0l.46.17.31.11.29.07a4.39,4.39,0,0,0,.52.13l.22,0,.6.09c.27,0,.54,0,.81,0h0a8.24,8.24,0,0,0,8.18-7.33c-2.7-.34-5.42-.65-8.18-.91C775.23,625.21,775.23,621.69,774.85,617Z"/><path class="cls-4" d="M774.85,617c.38,4.72.38,8.24.38,8.24,2.76.26,5.48.57,8.18.91a6.84,6.84,0,0,0,.06-.91c0-2.08-.06-4.63-.23-7.41-2.39-.29-4.79-.56-7.23-.8A9,9,0,0,0,774.85,617Z"/><path class="cls-4" d="M795.94,725.08a61.08,61.08,0,0,1-7.14,14.77q.36,7.17.31,13.75a115.23,115.23,0,0,0,8-11.65C796.92,736.57,796.52,731,795.94,725.08Z"/><path class="cls-4" d="M788.8,739.85a117.35,117.35,0,0,1-7.93,10.81q0,6.86-.33,13.07c3-3.33,5.92-6.72,8.57-10.13Q789.16,747,788.8,739.85Z"/><path class="cls-4" d="M637.91,795.48a5.5,5.5,0,1,1-5.5-5.49A5.5,5.5,0,0,1,637.91,795.48Z"/><path class="cls-4" d="M632.41,809.22a13.74,13.74,0,1,1,13.73-13.73A13.75,13.75,0,0,1,632.41,809.22Zm0-16.48a2.75,2.75,0,0,0-2.74,2.75c0,3,5.49,3,5.49,0A2.75,2.75,0,0,0,632.41,792.74Z"/><path class="cls-4" d="M697.59,688.37c-4.55,7.89-10.37,13-13,11.53s-1.07-9.14,3.48-17,10.37-13,13-11.52S702.14,680.49,697.59,688.37Z"/><path class="cls-4" d="M685.65,708.42a10.25,10.25,0,0,1-5.17-1.39c-7.34-4.23-7.16-15.07.46-28.27s16.93-18.79,24.25-14.53a10.61,10.61,0,0,1,4.92,6.59c2,7.6-3.08,17.69-5.38,21.67a46.42,46.42,0,0,1-8.89,11.33C691.87,707.34,688.4,708.42,685.65,708.42Z"/></svg>